# xmcd CD database file
#
# Track frame offsets:
#	150
#	14138
#	28463
#	36900
#	51090
#	80806
#	97123
#	115266
#	128984
#	139552
#	149344
#	165860
#	175954
#	196978
#	210574
#	219820
#	232149
#	243745
#	254259
#	263269
#	271007
#	279824
#	291756
#	303689
#
# Disc length: 4167 seconds
#
# Revision: 0
# Processed by: cddbd v1.5.2PL0 Copyright (c) Steve Scherf et al.
# Submitted via: CDex 1.78
#
DISCID=66104518
DTITLE=Unnikrishnan and Young Superstars - Essential Chants for Children
DYEAR=2013
DGENRE=India devotional
TTITLE0=Karagre Vasate Lakshmi - Morning Shloka
TTITLE1=Gajananam Bhutaganadi Sevitam - Ganesha
TTITLE2=Gayathri Mantra
TTITLE3=Shantakaram Bhujagashayanam - Vishnu
TTITLE4=Nagendra Haraya Trilochanaya - Shiva
TTITLE5=Vasudevasutam Devam - Krishna
TTITLE6=Ramaya Ram Bhadraya - Rama
TTITLE7=Buddhir Balam Yasho Dhairyam - Hanuman
TTITLE8=Shuklambaradharam Vishnum - Ganesha
TTITLE9=Sarva Mangal Mangalye - Devi
TTITLE10=Ya Kundendu - Saraswathi
TTITLE11=Saraswathi Namastubhyam - Saraswathi
TTITLE12=Ya Devi Sarvabhuteshu - Devi
TTITLE13=Annapoorne Sada Poorne - Annapoorna
TTITLE14=Mooshika Vahana Modaka Hasta - Ganesha
TTITLE15=Om Mitraya Namah - Surya
TTITLE16=Shadananam Chandana Lepitangam - Subramanya
TTITLE17=Poojyaya Raghavendraya - Raghavendra
TTITLE18=Gurur Brahma Gurur Vishnu - Guru
TTITLE19=Twameva Mata Cha Pita Twameva - Guru - God
TTITLE20=Bhoothanaadha Sadhanandha - Ayyappa
TTITLE21=Shubham Karoti Kalyanam - Deep
TTITLE22=Om Saha Navavatu - Shanti Mantra
TTITLE23=Om Asato Ma Sadgamaya - Shanti Mantra
EXTD=YEAR: 2013
EXTT0=
EXTT1=
EXTT2=
EXTT3=
EXTT4=
EXTT5=
EXTT6=
EXTT7=
EXTT8=
EXTT9=
EXTT10=
EXTT11=
EXTT12=
EXTT13=
EXTT14=
EXTT15=
EXTT16=
EXTT17=
EXTT18=
EXTT19=
EXTT20=
EXTT21=
EXTT22=
EXTT23=
PLAYORDER=
